#Comment line ignore any data following # character 
#Hierarchical Translation and Rotation (.htr) file 
[Header]	
#Header keywords are followed by a single value 
FileType HTR		#Single word string
DataType HTRS		#Translation followed by rotation and scale data
FileVersion 1		#integer
NumSegments 84		#integer
NumFrames 2		#integer
DataFrameRate 30		#integer, data frame rate in this file
EulerRotationOrder ZYX
CalibrationUnits mm
RotationUnits Degrees
GlobalAxisofGravity Y
BoneLengthAxis Y
ScaleFactor 1.00
[SegmentNames&Hierarchy]
#CHILD	PARENT
MASTER GLOBAL
root MASTER
chest root
L_mid_tent01 root
R_mid_tent01 root
spine01 root
Bip01_Neck chest
L_humerus chest
R_humerus chest
weapon_bone chest
Bip01_Head Bip01_Neck
eye_left_bone Bip01_Head
eye_right_bone Bip01_Head
L_forearm L_humerus
L_front_hand L_forearm
L_weapon_bone L_forearm
L_front_hand01_01 L_front_hand
L_front_hand02_01 L_front_hand
L_front_hand03_01 L_front_hand
L_front_hand01_02 L_front_hand01_01
L_front_hand02_02 L_front_hand02_01
L_front_hand03_02 L_front_hand03_01
R_forearm R_humerus
R_front_hand R_forearm
R_weapon_bone R_forearm
R_front_hand01_01 R_front_hand
R_front_hand02_01 R_front_hand
R_front_hand03_01 R_front_hand
R_front_hand01_02 R_front_hand01_01
R_front_hand02_02 R_front_hand02_01
R_front_hand03_02 R_front_hand03_01
null_rope01_connect L_mid_tent01
Rope1_Seg01 null_rope01_connect
Rope1_Seg02 Rope1_Seg01
Rope1_Seg03 Rope1_Seg02
Rope1_Seg04 Rope1_Seg03
Rope1_Seg05 Rope1_Seg04
Rope1_Seg06 Rope1_Seg05
Rope1_Seg07 Rope1_Seg06
Rope1_Seg09 Rope1_Seg07
L_mid_hand01 Rope1_Seg09
L_mid_hand02 Rope1_Seg09
L_mid_hand03 Rope1_Seg09
null_rope02_connect R_mid_tent01
Rope2_Seg01 null_rope02_connect
Rope2_Seg02 Rope2_Seg01
Rope2_Seg03 Rope2_Seg02
Rope2_Seg04 Rope2_Seg03
Rope2_Seg05 Rope2_Seg04
Rope2_Seg06 Rope2_Seg05
Rope2_Seg07 Rope2_Seg06
Rope2_Seg09 Rope2_Seg07
R_mid_hand01 Rope2_Seg09
R_mid_hand02 Rope2_Seg09
R_mid_hand03 Rope2_Seg09
spine02 spine01
spine03 spine02
pelvis spine03
null_rope03_connect pelvis
null_rope04_connect pelvis
Rope3_Seg01 null_rope03_connect
Rope3_Seg02 Rope3_Seg01
Rope3_Seg03 Rope3_Seg02
Rope3_Seg04 Rope3_Seg03
Rope3_Seg05 Rope3_Seg04
Rope3_Seg06 Rope3_Seg05
Rope3_Seg07 Rope3_Seg06
Rope3_Seg08 Rope3_Seg07
Rope3_Seg09 Rope3_Seg08
R_rear_hand01 Rope3_Seg09
R_rear_hand02 Rope3_Seg09
R_rear_hand03 Rope3_Seg09
Rope4_Seg01 null_rope04_connect
Rope4_Seg02 Rope4_Seg01
Rope4_Seg03 Rope4_Seg02
Rope4_Seg04 Rope4_Seg03
Rope4_Seg05 Rope4_Seg04
Rope4_Seg06 Rope4_Seg05
Rope4_Seg07 Rope4_Seg06
Rope4_Seg08 Rope4_Seg07
Rope4_Seg09 Rope4_Seg08
L_rear_hand01 Rope4_Seg09
L_rear_hand02 Rope4_Seg09
L_rear_hand03 Rope4_Seg09
[BasePosition]
#SegmentName Tx, Ty, Tz, Rx, Ry, Rz, BoneLength
MASTER 0.000000 0.000000 0.000000 -90.000000 0.000000 0.000000 10.000000 
root 0.000000 0.000000 0.000000 0.000000 0.000000 0.000000 10.000000 
chest 0.000000 0.000000 0.000000 0.000000 0.000000 0.000000 10.000000 
L_mid_tent01 0.000000 0.000000 0.000000 0.000000 0.000000 0.000000 10.000000 
R_mid_tent01 0.000000 0.000000 0.000000 0.000000 0.000000 0.000000 10.000000 
spine01 0.000000 0.000000 0.000000 0.000000 0.000000 0.000000 10.000000 
Bip01_Neck 0.000000 0.000000 0.000000 0.000000 0.000000 0.000000 10.000000 
L_humerus 0.000000 0.000000 0.000000 0.000000 0.000000 0.000000 10.000000 
R_humerus 0.000000 0.000000 0.000000 0.000000 0.000000 0.000000 10.000000 
weapon_bone 0.000000 0.000000 0.000000 0.000000 0.000000 0.000000 10.000000 
Bip01_Head 0.000000 0.000000 0.000000 0.000000 0.000000 0.000000 10.000000 
eye_left_bone 0.000000 0.000000 0.000000 0.000000 0.000000 0.000000 10.000000 
eye_right_bone 0.000000 0.000000 0.000000 0.000000 0.000000 0.000000 10.000000 
L_forearm 0.000000 0.000000 0.000000 0.000000 0.000000 0.000000 10.000000 
L_front_hand 0.000000 0.000000 0.000000 0.000000 0.000000 0.000000 10.000000 
L_weapon_bone 0.000000 0.000000 0.000000 0.000000 0.000000 0.000000 10.000000 
L_front_hand01_01 0.000000 0.000000 0.000000 0.000000 0.000000 0.000000 10.000000 
L_front_hand02_01 0.000000 0.000000 0.000000 0.000000 0.000000 0.000000 10.000000 
L_front_hand03_01 0.000000 0.000000 0.000000 0.000000 0.000000 0.000000 10.000000 
L_front_hand01_02 0.000000 0.000000 0.000000 0.000000 0.000000 0.000000 10.000000 
L_front_hand02_02 0.000000 0.000000 0.000000 0.000000 0.000000 0.000000 10.000000 
L_front_hand03_02 0.000000 0.000000 0.000000 0.000000 0.000000 0.000000 10.000000 
R_forearm 0.000000 0.000000 0.000000 0.000000 0.000000 0.000000 10.000000 
R_front_hand 0.000000 0.000000 0.000000 0.000000 0.000000 0.000000 10.000000 
R_weapon_bone 0.000000 0.000000 0.000000 0.000000 0.000000 0.000000 10.000000 
R_front_hand01_01 0.000000 0.000000 0.000000 0.000000 0.000000 0.000000 10.000000 
R_front_hand02_01 0.000000 0.000000 0.000000 0.000000 0.000000 0.000000 10.000000 
R_front_hand03_01 0.000000 0.000000 0.000000 0.000000 0.000000 0.000000 10.000000 
R_front_hand01_02 0.000000 0.000000 0.000000 0.000000 0.000000 0.000000 10.000000 
R_front_hand02_02 0.000000 0.000000 0.000000 0.000000 0.000000 0.000000 10.000000 
R_front_hand03_02 0.000000 0.000000 0.000000 0.000000 0.000000 0.000000 10.000000 
null_rope01_connect 0.000000 0.000000 0.000000 0.000000 0.000000 0.000000 10.000000 
Rope1_Seg01 0.000000 0.000000 0.000000 0.000000 0.000000 0.000000 10.000000 
Rope1_Seg02 0.000000 0.000000 0.000000 0.000000 0.000000 0.000000 10.000000 
Rope1_Seg03 0.000000 0.000000 0.000000 0.000000 0.000000 0.000000 10.000000 
Rope1_Seg04 0.000000 0.000000 0.000000 0.000000 0.000000 0.000000 10.000000 
Rope1_Seg05 0.000000 0.000000 0.000000 0.000000 0.000000 0.000000 10.000000 
Rope1_Seg06 0.000000 0.000000 0.000000 0.000000 0.000000 0.000000 10.000000 
Rope1_Seg07 0.000000 0.000000 0.000000 0.000000 0.000000 0.000000 10.000000 
Rope1_Seg09 0.000000 0.000000 0.000000 0.000000 0.000000 0.000000 10.000000 
L_mid_hand01 0.000000 0.000000 0.000000 0.000000 0.000000 0.000000 10.000000 
L_mid_hand02 0.000000 0.000000 0.000000 0.000000 0.000000 0.000000 10.000000 
L_mid_hand03 0.000000 0.000000 0.000000 0.000000 0.000000 0.000000 10.000000 
null_rope02_connect 0.000000 0.000000 0.000000 0.000000 0.000000 0.000000 10.000000 
Rope2_Seg01 0.000000 0.000000 0.000000 0.000000 0.000000 0.000000 10.000000 
Rope2_Seg02 0.000000 0.000000 0.000000 0.000000 0.000000 0.000000 10.000000 
Rope2_Seg03 0.000000 0.000000 0.000000 0.000000 0.000000 0.000000 10.000000 
Rope2_Seg04 0.000000 0.000000 0.000000 0.000000 0.000000 0.000000 10.000000 
Rope2_Seg05 0.000000 0.000000 0.000000 0.000000 0.000000 0.000000 10.000000 
Rope2_Seg06 0.000000 0.000000 0.000000 0.000000 0.000000 0.000000 10.000000 
Rope2_Seg07 0.000000 0.000000 0.000000 0.000000 0.000000 0.000000 10.000000 
Rope2_Seg09 0.000000 0.000000 0.000000 0.000000 0.000000 0.000000 10.000000 
R_mid_hand01 0.000000 0.000000 0.000000 0.000000 0.000000 0.000000 10.000000 
R_mid_hand02 0.000000 0.000000 0.000000 0.000000 0.000000 0.000000 10.000000 
R_mid_hand03 0.000000 0.000000 0.000000 0.000000 0.000000 0.000000 10.000000 
spine02 0.000000 0.000000 0.000000 0.000000 0.000000 0.000000 10.000000 
spine03 0.000000 0.000000 0.000000 0.000000 0.000000 0.000000 10.000000 
pelvis 0.000000 0.000000 0.000000 0.000000 0.000000 0.000000 10.000000 
null_rope03_connect 0.000000 0.000000 0.000000 0.000000 0.000000 0.000000 10.000000 
null_rope04_connect 0.000000 0.000000 0.000000 0.000000 0.000000 0.000000 10.000000 
Rope3_Seg01 0.000000 0.000000 0.000000 0.000000 0.000000 0.000000 10.000000 
Rope3_Seg02 0.000000 0.000000 0.000000 0.000000 0.000000 0.000000 10.000000 
Rope3_Seg03 0.000000 0.000000 0.000000 0.000000 0.000000 0.000000 10.000000 
Rope3_Seg04 0.000000 0.000000 0.000000 0.000000 0.000000 0.000000 10.000000 
Rope3_Seg05 0.000000 0.000000 0.000000 0.000000 0.000000 0.000000 10.000000 
Rope3_Seg06 0.000000 0.000000 0.000000 0.000000 0.000000 0.000000 10.000000 
Rope3_Seg07 0.000000 0.000000 0.000000 0.000000 0.000000 0.000000 10.000000 
Rope3_Seg08 0.000000 0.000000 0.000000 0.000000 0.000000 0.000000 10.000000 
Rope3_Seg09 0.000000 0.000000 0.000000 0.000000 0.000000 0.000000 10.000000 
R_rear_hand01 0.000000 0.000000 0.000000 0.000000 0.000000 0.000000 10.000000 
R_rear_hand02 0.000000 0.000000 0.000000 0.000000 0.000000 0.000000 10.000000 
R_rear_hand03 0.000000 0.000000 0.000000 0.000000 0.000000 0.000000 10.000000 
Rope4_Seg01 0.000000 0.000000 0.000000 0.000000 0.000000 0.000000 10.000000 
Rope4_Seg02 0.000000 0.000000 0.000000 0.000000 0.000000 0.000000 10.000000 
Rope4_Seg03 0.000000 0.000000 0.000000 0.000000 0.000000 0.000000 10.000000 
Rope4_Seg04 0.000000 0.000000 0.000000 0.000000 0.000000 0.000000 10.000000 
Rope4_Seg05 0.000000 0.000000 0.000000 0.000000 0.000000 0.000000 10.000000 
Rope4_Seg06 0.000000 0.000000 0.000000 0.000000 0.000000 0.000000 10.000000 
Rope4_Seg07 0.000000 0.000000 0.000000 0.000000 0.000000 0.000000 10.000000 
Rope4_Seg08 0.000000 0.000000 0.000000 0.000000 0.000000 0.000000 10.000000 
Rope4_Seg09 0.000000 0.000000 0.000000 0.000000 0.000000 0.000000 10.000000 
L_rear_hand01 0.000000 0.000000 0.000000 0.000000 0.000000 0.000000 10.000000 
L_rear_hand02 0.000000 0.000000 0.000000 0.000000 0.000000 0.000000 10.000000 
L_rear_hand03 0.000000 0.000000 0.000000 0.000000 0.000000 0.000000 10.000000 
#Beginning of Data. Separated by tabs
#Fr	Tx	Ty	Tz	Rx	Ry	Rz	SF
[MASTER]
23 -1354.124390 163.131348 1515.048706 0.001660 0.001660 0.001660 2038.538086
24 -1354.124390 163.131348 1515.048706 0.001660 0.001660 0.001660 2038.538086
[root]
23 20.013123 -118.897354 462.015350 -164.460281 -13.331019 -70.563698 477.488556
24 20.013123 -118.897354 462.015350 -164.790283 -13.259507 -70.393990 477.488556
[chest]
23 -84.512650 -34.090519 0.000000 -40.169712 -24.302935 -179.280762 91.129311
24 -84.512650 -34.090519 0.000000 -40.300415 -24.654228 -179.020554 91.129311
[L_mid_tent01]
23 27.299149 22.179228 -249.918716 -10.293738 14.402018 40.257355 252.381714
24 27.299152 22.179232 -249.918716 -9.954445 14.431346 41.473232 252.381714
[R_mid_tent01]
23 23.228794 24.509907 226.238495 178.510025 -19.562365 31.115904 228.744751
24 23.228794 24.509907 226.238495 178.886398 -19.976906 30.516848 228.744751
[spine01]
23 -0.361383 -0.195265 0.000000 0.001957 0.001296 22.992834 0.410763
24 -0.361383 -0.195265 0.000000 0.001957 0.001296 22.976685 0.410763
[Bip01_Neck]
23 165.484543 71.581718 0.000119 176.643677 -1.657967 43.431911 180.302734
24 165.484543 71.581718 0.000119 176.643677 -1.657967 43.431911 180.302734
[L_humerus]
23 -13.983130 -135.272980 -120.471481 156.236252 70.272858 -111.561356 181.680161
24 -13.983130 -135.272980 -120.471481 155.058105 71.042259 -112.819389 181.680161
[R_humerus]
23 -13.983309 -135.273102 125.287651 -72.845284 -57.071926 173.367126 184.909012
24 -13.983309 -135.273102 125.287651 -71.926079 -57.394127 172.308609 184.909012
[weapon_bone]
23 235.964890 -300.705902 0.000000 0.000000 -89.951546 -128.212341 382.234833
24 235.964890 -300.705902 0.000000 0.000000 -89.951546 -128.212341 382.234833
[Bip01_Head]
23 213.540009 185.448700 15.220718 -15.367777 1.253512 -43.875759 283.235291
24 213.520752 185.502350 14.528348 -14.376572 1.700281 -43.871510 283.219543
[eye_left_bone]
23 -24.626970 125.451866 -64.772606 0.000000 -90.000000 -99.840431 143.318359
24 -24.626970 125.451866 -64.772606 0.000000 -90.000000 -99.840431 143.318359
[eye_right_bone]
23 -24.626970 125.451866 64.327362 0.000000 -89.965736 80.156380 143.117676
24 -24.626970 125.451866 64.327362 0.000000 -89.965736 80.156380 143.117676
[L_forearm]
23 322.776093 0.000000 -0.000119 0.000173 -0.002341 -98.430534 322.776093
24 322.776093 0.000000 -0.000119 0.000178 -0.002340 -98.700775 322.776093
[L_front_hand]
23 241.149185 -0.042021 -3.300071 -178.667953 -1.835447 -27.422350 241.171753
24 241.149185 -0.042021 -3.300071 134.917130 -1.836874 -27.420336 241.171753
[L_weapon_bone]
23 156.183838 0.000000 0.000000 0.000014 0.000007 0.000001 156.183838
24 156.183838 0.000000 0.000000 0.000014 0.000007 0.000001 156.183838
[L_front_hand01_01]
23 86.095154 20.947098 -0.655860 -0.124396 -0.589263 49.784641 88.609184
24 86.095154 20.947098 -0.655860 -0.366594 -0.477154 75.385574 88.609184
[L_front_hand02_01]
23 86.935165 -11.437475 24.513514 128.476791 -43.347324 -28.965443 91.046425
24 86.935165 -11.437475 24.513514 154.399796 -59.883820 -61.369564 91.046425
[L_front_hand03_01]
23 86.637497 -14.123976 -20.424902 -129.461548 41.715668 -31.381964 90.126129
24 86.637497 -14.123976 -20.424902 -153.913849 58.118107 -62.702850 90.126129
[L_front_hand01_02]
23 71.020905 -0.000179 0.000030 0.000246 0.002334 -77.957420 71.020905
24 71.020905 -0.000179 0.000030 0.001534 0.001777 -8.378867 71.020905
[L_front_hand02_02]
23 71.020927 -0.000119 0.000060 0.000246 0.002334 -77.957420 71.020927
24 71.020927 -0.000119 0.000060 0.001534 0.001777 -8.378867 71.020927
[L_front_hand03_02]
23 71.020905 -0.000060 0.000060 0.000246 0.002334 -77.957420 71.020905
24 71.020905 -0.000060 0.000060 0.001534 0.001777 -8.378867 71.020905
[R_forearm]
23 322.776428 -0.000060 0.000030 0.212436 0.021124 -96.985405 322.776428
24 322.776428 -0.000060 0.000030 0.212383 0.021630 -97.258659 322.776428
[R_front_hand]
23 238.847015 -0.006795 2.210259 -2.635298 -10.645461 -26.312506 238.857239
24 238.847015 -0.006795 2.210259 -2.635298 -10.645461 -26.312506 238.857239
[R_weapon_bone]
23 155.664093 0.002503 -0.000030 0.003487 0.001180 -90.988930 155.664078
24 155.664093 0.002503 -0.000030 0.003487 0.001180 -90.988930 155.664078
[R_front_hand01_01]
23 87.624611 14.231146 22.918642 -153.536880 -59.633747 60.470901 91.683487
24 87.624611 14.231146 22.918642 -154.633484 -59.950607 61.746033 91.683487
[R_front_hand02_01]
23 89.356956 14.367283 -19.491137 153.567596 57.992992 62.531010 92.579636
24 89.356956 14.367283 -19.491137 154.602661 58.302856 63.744389 92.579636
[R_front_hand03_01]
23 87.286232 -22.307278 -0.143439 0.155617 -0.427176 -75.061508 90.091743
24 87.286232 -22.307278 -0.143439 0.162155 -0.423168 -75.767921 90.091743
[R_front_hand01_02]
23 71.020905 0.000060 0.000119 0.002323 -0.000334 106.381714 71.020905
24 71.020905 0.000060 0.000119 0.002323 -0.000334 106.381714 71.020905
[R_front_hand02_02]
23 71.020844 -0.000030 -0.000119 0.002323 -0.000334 106.381714 71.020836
24 71.020844 -0.000030 -0.000119 0.002323 -0.000334 106.381714 71.020836
[R_front_hand03_02]
23 71.020905 0.000000 0.000030 0.002323 -0.000334 106.381714 71.020905
24 71.020905 0.000000 0.000030 0.002323 -0.000334 106.381714 71.020905
[null_rope01_connect]
23 328.732483 0.000000 -0.000238 -162.995499 -4.166253 -113.503036 328.732483
24 328.732483 0.000000 -0.000238 -163.119019 -3.996918 -114.471100 328.732483
[Rope1_Seg01]
23 0.000096 -0.000062 0.000057 22.583820 -68.081207 88.239410 0.000128
24 0.000100 -0.000063 0.000052 25.822996 -67.544106 84.654373 0.000130
[Rope1_Seg02]
23 139.999863 -0.000179 0.000000 0.364792 5.375827 1.301165 139.999863
24 139.999863 -0.000179 0.000000 0.317398 5.335936 1.675121 139.999863
[Rope1_Seg03]
23 139.999924 0.000060 -0.000060 0.176142 9.040160 2.144037 139.999924
24 139.999924 0.000060 -0.000060 0.153680 9.020976 2.807143 139.999924
[Rope1_Seg04]
23 139.999924 -0.000060 -0.000119 -2.147137 21.367083 2.486273 139.999924
24 139.999924 -0.000060 -0.000119 -1.858415 21.437904 4.222105 139.999924
[Rope1_Seg05]
23 139.999832 0.000119 -0.000060 -7.495878 27.502577 9.253237 139.999832
24 139.999832 0.000119 -0.000060 -5.899376 26.205341 11.942569 139.999832
[Rope1_Seg06]
23 139.999954 0.000119 -0.000060 -4.105714 -0.295832 23.374140 139.999954
24 139.999954 0.000119 -0.000060 -3.201012 1.097182 22.146872 139.999954
[Rope1_Seg07]
23 139.999985 0.000060 0.000000 0.479417 2.042359 19.298611 139.999985
24 139.999985 0.000060 0.000000 0.798413 3.817830 17.459908 139.999985
[Rope1_Seg09]
23 121.602913 0.000119 -0.000089 -89.793175 -1.359789 0.847147 121.602913
24 121.602913 0.000119 -0.000089 -89.793175 -1.359789 0.847147 121.602913
[L_mid_hand01]
23 103.859421 1.038730 8.195221 116.522400 -56.273491 -23.071604 104.187431
24 103.859421 1.038730 8.195221 119.055542 -59.298035 -26.066498 104.187431
[L_mid_hand02]
23 105.572853 -4.139662 -10.864139 -157.484573 39.487514 -56.304852 106.211075
24 105.572853 -4.139662 -10.864139 -160.167099 40.723133 -60.466198 106.211075
[L_mid_hand03]
23 104.641464 17.579376 -3.913581 -10.068325 15.918203 60.978344 106.179977
24 104.641464 17.579376 -3.913581 -9.090184 16.486181 64.488464 106.179977
[null_rope02_connect]
23 328.732849 0.000179 -0.000119 -13.488111 20.137478 93.780258 328.732849
24 328.732849 0.000179 -0.000119 -13.870227 19.997637 93.050018 328.732849
[Rope2_Seg01]
23 0.000110 0.000138 -0.000096 81.716034 69.811852 19.198156 0.000201
24 0.000113 0.000140 -0.000100 79.602623 70.723976 16.765764 0.000206
[Rope2_Seg02]
23 139.999741 -0.000060 -0.000119 -0.987975 19.806717 -13.050832 139.999756
24 139.999741 -0.000060 -0.000119 -0.959142 18.426395 -11.350100 139.999756
[Rope2_Seg03]
23 140.000107 0.000030 0.000000 5.175906 28.931494 -21.512667 140.000107
24 140.000107 0.000030 0.000000 2.529059 32.249943 -22.416052 140.000107
[Rope2_Seg04]
23 139.999802 0.000000 -0.000060 68.685768 15.874005 -16.094692 139.999802
24 139.999802 0.000000 -0.000060 111.822769 20.093475 -18.057175 139.999802
[Rope2_Seg05]
23 139.999985 -0.000060 0.000119 49.323204 -3.472074 -8.265432 139.999985
24 139.999985 -0.000060 0.000119 18.538864 -6.115216 -1.970803 139.999985
[Rope2_Seg06]
23 139.999893 -0.000030 -0.000119 15.072561 -6.201431 -2.168483 139.999893
24 139.999893 -0.000030 -0.000119 2.495934 -3.028043 0.539415 139.999893
[Rope2_Seg07]
23 139.999893 0.000060 -0.000060 6.202259 -5.468184 -0.279941 139.999893
24 139.999893 0.000060 -0.000060 3.756528 -3.810825 0.198467 139.999893
[Rope2_Seg09]
23 121.338966 0.000089 -0.000060 33.793236 -1.359788 -0.847141 121.338966
24 121.338966 0.000089 -0.000060 33.793236 -1.359788 -0.847141 121.338966
[R_mid_hand01]
23 104.680779 11.144459 -10.335981 -35.915806 33.394672 39.963581 105.778534
24 104.680779 11.144459 -10.335981 -34.395382 34.968521 42.666164 105.778534
[R_mid_hand02]
23 104.070427 2.443552 8.231699 69.545181 -44.771027 15.251744 104.424065
24 104.070427 2.443552 8.231699 68.534233 -47.330906 16.661503 104.424065
[R_mid_hand03]
23 106.028137 -11.221827 -5.996406 -170.436981 12.655030 -49.730145 106.788818
24 106.028137 -11.221827 -5.996406 -171.057114 13.096076 -52.505173 106.788818
[spine02]
23 129.756927 0.001550 0.000119 -0.765880 -3.986612 2.992972 129.756927
24 129.756927 0.001550 0.000119 -0.736676 -3.992182 2.578664 129.756927
[spine03]
23 78.614044 0.081212 -4.898990 1.208522 4.099646 6.566438 78.766579
24 78.614044 0.081185 -4.898990 1.227676 4.094665 6.828203 78.766579
[pelvis]
23 169.435242 0.051022 0.000000 0.006661 -0.191137 -5.960598 169.435257
24 169.435242 0.051022 0.000000 0.003320 -0.191285 -5.438232 169.435257
[null_rope03_connect]
23 -1.257226 -2.466202 137.391083 -172.650131 -19.036978 -96.509048 137.418976
24 -1.257226 -2.466202 137.391083 -172.659393 -18.751970 -96.715607 137.418976
[null_rope04_connect]
23 -1.259640 -2.480268 -137.844437 -172.650131 -19.036978 -96.509048 137.872513
24 -1.259640 -2.480268 -137.844437 -172.659393 -18.751970 -96.715607 137.872513
[Rope3_Seg01]
23 0.000000 0.000000 0.000000 25.472589 21.024368 -53.464573 0.000000
24 0.000000 0.000000 0.000000 26.832857 23.807024 -53.789246 0.000000
[Rope3_Seg02]
23 139.999924 -0.000119 0.000060 5.268901 8.094347 -23.137085 139.999924
24 139.999924 -0.000119 0.000060 4.986239 6.346757 -20.928724 139.999924
[Rope3_Seg03]
23 139.999924 -0.000119 0.000119 -5.543495 8.726976 -43.472927 139.999924
24 139.999924 -0.000119 0.000119 -4.266199 7.112286 -42.850006 139.999924
[Rope3_Seg04]
23 139.999924 0.000119 0.000000 -10.115144 5.509767 -22.264631 139.999924
24 139.999924 0.000119 0.000000 -11.438709 4.866580 -25.529377 139.999924
[Rope3_Seg05]
23 139.999924 -0.000238 0.000060 -12.559069 7.414532 -15.338062 139.999924
24 139.999924 -0.000238 0.000060 -15.037925 8.302117 -16.411028 139.999924
[Rope3_Seg06]
23 139.999893 -0.000119 -0.000060 -24.846462 15.258555 -19.762306 139.999893
24 139.999893 -0.000119 -0.000060 -24.771240 16.080528 -17.689827 139.999893
[Rope3_Seg07]
23 139.999771 0.000060 -0.000119 -14.437475 13.776484 -7.940291 139.999771
24 139.999771 0.000060 -0.000119 -12.277939 12.571402 -6.080908 139.999771
[Rope3_Seg08]
23 139.999985 -0.000060 0.000000 -5.473111 7.529297 -2.184839 139.999985
24 139.999985 -0.000060 0.000000 -4.745017 6.825646 -1.719532 139.999985
[Rope3_Seg09]
23 90.185997 -0.000179 -0.000060 89.793228 -1.359877 -0.847183 90.185997
24 90.185997 -0.000179 -0.000060 89.793228 -1.359877 -0.847183 90.185997
[R_rear_hand01]
23 103.366196 -6.073594 -10.757982 -176.050842 -17.968979 -54.454765 104.101845
24 103.366196 -6.073594 -10.757982 -177.349808 -17.430935 -56.999043 104.101845
[R_rear_hand02]
23 100.509819 12.039542 -7.992327 -28.715416 27.221781 42.882874 101.543350
24 100.509819 12.039542 -7.992327 -27.197792 28.737715 46.115417 101.543350
[R_rear_hand03]
23 101.539970 5.215704 5.435467 81.812386 -45.906315 9.761456 101.819031
24 101.539970 5.215704 5.435467 81.295570 -49.108288 10.466791 101.819031
[Rope4_Seg01]
23 0.000010 0.000014 -0.000057 -119.189003 -24.410564 -52.866982 0.000059
24 0.000010 0.000013 -0.000052 -123.627480 -27.002136 -50.841602 0.000055
[Rope4_Seg02]
23 139.999985 0.000060 0.000119 -10.436806 26.743982 -3.067587 139.999985
24 139.999985 0.000060 0.000119 -8.290709 26.753157 -0.209730 139.999985
[Rope4_Seg03]
23 139.999924 0.000000 -0.000238 0.047083 40.395992 4.736845 139.999924
24 139.999924 0.000000 -0.000238 1.938507 40.006176 8.899773 139.999924
[Rope4_Seg04]
23 139.999985 0.000000 0.000119 2.712204 18.999548 3.395215 139.999985
24 139.999985 0.000000 0.000119 2.419250 18.882689 4.998727 139.999985
[Rope4_Seg05]
23 139.999802 -0.000060 -0.000119 5.298812 12.962708 -1.723034 139.999802
24 139.999802 -0.000060 -0.000119 6.205325 14.404270 -1.829569 139.999802
[Rope4_Seg06]
23 139.999924 0.000000 0.000060 26.340458 26.435417 -10.710650 139.999924
24 139.999924 0.000000 0.000060 31.714403 28.326406 -12.441285 139.999924
[Rope4_Seg07]
23 139.999802 0.000000 0.000000 38.609055 18.195234 -21.256113 139.999802
24 139.999802 0.000000 0.000000 35.219978 14.181741 -20.507906 139.999802
[Rope4_Seg08]
23 139.999924 0.000000 0.000119 12.471732 0.278708 -12.790661 139.999924
24 139.999924 0.000000 0.000119 10.660075 -0.181404 -11.269058 139.999924
[Rope4_Seg09]
23 90.185791 0.000060 0.000060 -135.617828 2.228885 0.850567 90.185791
24 90.185791 0.000060 0.000060 -135.617828 2.228885 0.850567 90.185791
[L_rear_hand01]
23 101.696655 -8.392275 -7.654577 -21.250181 -33.196430 122.367828 102.329041
24 101.696655 -8.392275 -7.654577 -19.499575 -34.171795 119.209053 102.329041
[L_rear_hand02]
23 102.726799 -1.568258 5.773216 78.649612 59.766773 166.297348 102.900848
24 102.726799 -1.568258 5.773216 77.604698 62.517105 165.103577 102.900848
[L_rear_hand03]
23 104.552910 9.721220 -10.420293 -172.167084 -23.462944 -119.660843 105.519653
24 104.552910 9.721220 -10.420293 -173.384872 -23.818933 -116.619850 105.519653
